<?xml version="1.0" encoding="UTF-8" standalone="no"?>
<!-- Created with Inkscape (http://www.inkscape.org/) -->

<svg
   xmlns:dc="http://purl.org/dc/elements/1.1/"
   xmlns:cc="http://creativecommons.org/ns#"
   xmlns:rdf="http://www.w3.org/1999/02/22-rdf-syntax-ns#"
   xmlns:svg="http://www.w3.org/2000/svg"
   xmlns="http://www.w3.org/2000/svg"
   xmlns:sodipodi="http://sodipodi.sourceforge.net/DTD/sodipodi-0.dtd"
   xmlns:inkscape="http://www.inkscape.org/namespaces/inkscape"
   width="96"
   height="96"
   id="svg2"
   version="1.1"
   inkscape:version="0.48.3.1 r9886"
   sodipodi:docname="cloucelona-graphics.svg">
  <defs
     id="defs4" />
  <sodipodi:namedview
     id="base"
     pagecolor="#ffffff"
     bordercolor="#666666"
     borderopacity="1.0"
     inkscape:pageopacity="0.0"
     inkscape:pageshadow="2"
     inkscape:zoom="1"
     inkscape:cx="322.74802"
     inkscape:cy="6.8552047"
     inkscape:document-units="px"
     inkscape:current-layer="layer1"
     showgrid="false"
     inkscape:showpageshadow="false"
     inkscape:window-width="1024"
     inkscape:window-height="581"
     inkscape:window-x="0"
     inkscape:window-y="0"
     inkscape:window-maximized="0">
    <inkscape:grid
       type="xygrid"
       id="grid2985"
       empspacing="8"
       visible="true"
       enabled="true"
       snapvisiblegridlinesonly="true" />
  </sodipodi:namedview>
  <metadata
     id="metadata7">
    <rdf:RDF>
      <cc:Work
         rdf:about="">
        <dc:format>image/svg+xml</dc:format>
        <dc:type
           rdf:resource="http://purl.org/dc/dcmitype/StillImage" />
        <dc:title></dc:title>
      </cc:Work>
    </rdf:RDF>
  </metadata>
  <g
     inkscape:label="Layer 1"
     inkscape:groupmode="layer"
     id="layer1"
     transform="translate(0,-956.36218)">
    <g
       id="g3073">
      <path
         inkscape:export-ydpi="90"
         inkscape:export-xdpi="90"
         inkscape:export-filename="./player-thief.png"
         transform="matrix(0.85714286,0,0,0.85714286,0,956.36218)"
         d="M 56,28 A 28,28 0 1 1 0,28 28,28 0 1 1 56,28 z"
         sodipodi:ry="28"
         sodipodi:rx="28"
         sodipodi:cy="28"
         sodipodi:cx="28"
         id="path2987"
         style="fill:#001d50;fill-opacity:1;stroke:none"
         sodipodi:type="arc" />
      <path
         inkscape:export-ydpi="90"
         inkscape:export-xdpi="90"
         inkscape:export-filename="./player-thief.png"
         sodipodi:type="arc"
         style="fill:#001dd3;fill-opacity:1;stroke:none"
         id="path3765"
         sodipodi:cx="28"
         sodipodi:cy="28"
         sodipodi:rx="28"
         sodipodi:ry="28"
         d="M 56,28 A 28,28 0 1 1 0,28 28,28 0 1 1 56,28 z"
         transform="matrix(0.78571428,0,0,0.78571428,2.0000002,958.36218)" />
      <path
         inkscape:export-ydpi="90"
         inkscape:export-xdpi="90"
         inkscape:export-filename="./player-thief.png"
         id="rect3757"
         transform="translate(0,956.36218)"
         d="M 11.53125 5.875 C 9.3164832 7.4009611 7.4009611 9.3164832 5.875 11.53125 L 18.34375 24 L 5.875 36.46875 C 7.4009611 38.683517 9.3164832 40.599039 11.53125 42.125 L 24 29.65625 L 36.46875 42.125 C 38.683517 40.599039 40.599039 38.683517 42.125 36.46875 L 29.65625 24 L 42.125 11.53125 C 40.599039 9.3164832 38.683517 7.4009611 36.46875 5.875 L 24 18.34375 L 11.53125 5.875 z "
         style="fill:#000000;fill-opacity:0.2;stroke:none" />
      <g
         inkscape:export-ydpi="90"
         inkscape:export-xdpi="90"
         inkscape:export-filename="./player-thief.png"
         style="fill:#ff6565;fill-opacity:1"
         id="g3817">
        <path
           style="fill:#ff6565;fill-opacity:1;stroke:none"
           d="m 7.0625,982.36218 c -0.0625,6 9.108276,12 16.9375,12 7.829224,0 17,-6 16.9375,-12 z"
           id="path3770"
           inkscape:connector-curvature="0"
           sodipodi:nodetypes="cscc" />
        <path
           sodipodi:type="arc"
           style="fill:#ff6565;fill-opacity:1;stroke:none"
           id="path3775"
           sodipodi:cx="16"
           sodipodi:cy="16"
           sodipodi:rx="2"
           sodipodi:ry="2"
           d="m 18,16 c 0,1.104569 -0.895431,2 -2,2 -1.104569,0 -2,-0.895431 -2,-2 0,-1.104569 0.895431,-2 2,-2 1.104569,0 2,0.895431 2,2 z"
           transform="translate(0,956.36218)" />
        <path
           transform="matrix(1.5,0,0,1.5,8,948.36218)"
           d="m 18,16 c 0,1.104569 -0.895431,2 -2,2 -1.104569,0 -2,-0.895431 -2,-2 0,-1.104569 0.895431,-2 2,-2 1.104569,0 2,0.895431 2,2 z"
           sodipodi:ry="2"
           sodipodi:rx="2"
           sodipodi:cy="16"
           sodipodi:cx="16"
           id="path3777"
           style="fill:#ff6565;fill-opacity:1;stroke:none"
           sodipodi:type="arc" />
        <rect
           style="fill:#ff6565;fill-opacity:1;stroke:none"
           id="rect3779"
           width="7"
           height="2"
           x="262.80954"
           y="929.12958"
           transform="matrix(0.96592583,0.25881905,-0.25881905,0.96592583,0,0)" />
        <rect
           y="941.55292"
           x="-223.4451"
           height="2"
           width="7"
           id="rect3781"
           style="fill:#ff6565;fill-opacity:1;stroke:none"
           transform="matrix(0.96592583,-0.25881905,0.25881905,0.96592583,0,0)" />
      </g>
      <path
         inkscape:export-ydpi="90"
         inkscape:export-xdpi="90"
         inkscape:export-filename="./player-thief.png"
         id="rect3783"
         d="m 7.0625,982.36218 c -0.017644,1.69384 0.7213313,3.37865 1.9375,4.9375 l 0,-4.9375 -1.9375,0 z m 3.9375,0 0,7.03125 c 0.619712,0.5339 1.281398,1.03083 2,1.5 l 0,-8.53125 -2,0 z m 4,0 0,9.6875 c 0.648775,0.33052 1.315782,0.63832 2,0.90625 l 0,-10.59375 -2,0 z m 4,0 0,11.25 c 0.661123,0.18783 1.332832,0.35037 2,0.46875 l 0,-11.71875 -2,0 z m 4,0 0,11.96875 c 0.337039,0.0213 0.667001,0.0313 1,0.0313 0.332999,0 0.662961,-0.01 1,-0.0313 l 0,-11.96875 -2,0 z m 4,0 0,11.71875 c 0.667168,-0.11838 1.338877,-0.28092 2,-0.46875 l 0,-11.25 -2,0 z m 4,0 0,10.59375 c 0.684218,-0.26793 1.351225,-0.57573 2,-0.90625 l 0,-9.6875 -2,0 z m 4,0 0,8.53125 c 0.718602,-0.46917 1.380288,-0.9661 2,-1.5 l 0,-7.03125 -2,0 z m 4,0 0,4.9375 c 1.216169,-1.55885 1.955144,-3.24366 1.9375,-4.9375 l -1.9375,0 z"
         style="fill:#000000;fill-opacity:0.42439025;stroke:none"
         inkscape:connector-curvature="0" />
    </g>
    <g
       id="g3085">
      <path
         inkscape:export-ydpi="90"
         inkscape:export-xdpi="90"
         inkscape:export-filename="./pedestrian-normal.png"
         sodipodi:type="arc"
         style="fill:#34d600;fill-opacity:1;stroke:none"
         id="path3824"
         sodipodi:cx="28"
         sodipodi:cy="28"
         sodipodi:rx="28"
         sodipodi:ry="28"
         d="M 56,28 A 28,28 0 1 1 0,28 28,28 0 1 1 56,28 z"
         transform="matrix(0.85714286,0,0,0.85714286,48,956.36218)" />
      <path
         inkscape:export-ydpi="90"
         inkscape:export-xdpi="90"
         inkscape:export-filename="./pedestrian-normal.png"
         transform="matrix(0.78571428,0,0,0.78571428,50,958.36218)"
         d="M 56,28 A 28,28 0 1 1 0,28 28,28 0 1 1 56,28 z"
         sodipodi:ry="28"
         sodipodi:rx="28"
         sodipodi:cy="28"
         sodipodi:cx="28"
         id="path3826"
         style="fill:#e4ff79;fill-opacity:1;stroke:none"
         sodipodi:type="arc" />
      <path
         inkscape:export-ydpi="90"
         inkscape:export-xdpi="90"
         inkscape:export-filename="./pedestrian-normal.png"
         inkscape:connector-curvature="0"
         style="fill:#4de700;fill-opacity:0.2;stroke:none"
         d="m 50.366952,976.36261 c -0.48706,2.64509 -0.487062,5.35405 0,7.99914 l 17.633475,0 0,17.63345 c 2.645097,0.4871 5.354052,0.4871 7.999146,0 l 0,-17.63345 17.633475,0 c 0.48706,-2.64509 0.487062,-5.35405 0,-7.99914 l -17.633475,0 0,-17.63348 c -2.645097,-0.48706 -5.354052,-0.48706 -7.999146,0 l 0,17.63348 -17.633475,0 z"
         id="path3828" />
    </g>
    <g
       id="g3090">
      <path
         inkscape:export-ydpi="90"
         inkscape:export-xdpi="90"
         inkscape:export-filename="./pedestrian-canberobbed.png"
         transform="matrix(0.85714286,0,0,0.85714286,48,1004.3622)"
         d="M 56,28 A 28,28 0 1 1 0,28 28,28 0 1 1 56,28 z"
         sodipodi:ry="28"
         sodipodi:rx="28"
         sodipodi:cy="28"
         sodipodi:cx="28"
         id="path3844"
         style="fill:#34d600;fill-opacity:1;stroke:none"
         sodipodi:type="arc" />
      <path
         inkscape:export-ydpi="90"
         inkscape:export-xdpi="90"
         inkscape:export-filename="./pedestrian-canberobbed.png"
         sodipodi:type="arc"
         style="fill:#e4ff79;fill-opacity:1;stroke:none"
         id="path3846"
         sodipodi:cx="28"
         sodipodi:cy="28"
         sodipodi:rx="28"
         sodipodi:ry="28"
         d="M 56,28 A 28,28 0 1 1 0,28 28,28 0 1 1 56,28 z"
         transform="matrix(0.67857143,0,0,0.67857143,53,1009.3622)" />
      <path
         inkscape:export-ydpi="90"
         inkscape:export-xdpi="90"
         inkscape:export-filename="./pedestrian-canberobbed.png"
         id="path3848"
         d="m 53.316912,1024.908 c -0.420642,2.2844 -0.420643,4.6239 0,6.9083 l 15.228911,0 0,15.229 c 2.284402,0.4206 4.623954,0.4206 6.908354,0 l 0,-15.229 15.228911,0 c 0.420642,-2.2844 0.420643,-4.6239 0,-6.9083 l -15.228911,0 0,-15.229 c -2.284402,-0.4206 -4.623954,-0.4206 -6.908354,0 l 0,15.229 -15.228911,0 z"
         style="fill:#4de700;fill-opacity:0.2;stroke:none"
         inkscape:connector-curvature="0" />
    </g>
    <g
       id="g3095">
      <path
         inkscape:export-ydpi="90"
         inkscape:export-xdpi="90"
         inkscape:export-filename="./pedestrian-gettingrobbed.png"
         sodipodi:type="arc"
         style="fill:#ffa71a;fill-opacity:1;stroke:none"
         id="path3850"
         sodipodi:cx="28"
         sodipodi:cy="28"
         sodipodi:rx="28"
         sodipodi:ry="28"
         d="M 56,28 A 28,28 0 1 1 0,28 28,28 0 1 1 56,28 z"
         transform="matrix(0.85714286,0,0,0.85714286,0,1004.3622)" />
      <path
         inkscape:export-ydpi="90"
         inkscape:export-xdpi="90"
         inkscape:export-filename="./pedestrian-gettingrobbed.png"
         transform="matrix(0.58112203,0,0,0.58112203,7.728583,1012.0908)"
         d="M 56,28 A 28,28 0 1 1 0,28 28,28 0 1 1 56,28 z"
         sodipodi:ry="28"
         sodipodi:rx="28"
         sodipodi:cy="28"
         sodipodi:cx="28"
         id="path3852"
         style="fill:#e4ff79;fill-opacity:1;stroke:none"
         sodipodi:type="arc" />
      <path
         inkscape:export-ydpi="90"
         inkscape:export-xdpi="90"
         inkscape:export-filename="./pedestrian-gettingrobbed.png"
         inkscape:connector-curvature="0"
         style="fill:#e79c00;fill-opacity:0.2;stroke:none"
         d="m 7.999984,1025.4041 c -0.360234,1.9563 -0.360235,3.9598 0,5.9162 l 13.041892,0 0,13.0419 c 1.95634,0.3602 3.95991,0.3602 5.916248,0 l 0,-13.0419 13.041892,0 c 0.360234,-1.9564 0.360235,-3.9599 0,-5.9162 l -13.041892,0 0,-13.042 c -1.95634,-0.3602 -3.95991,-0.3602 -5.916248,0 l 0,13.042 -13.041892,0 z"
         id="path3854" />
    </g>
    <path
       sodipodi:type="arc"
       style="fill:#ffffff;fill-opacity:0.2;stroke:none"
       id="path3102"
       sodipodi:cx="165"
       sodipodi:cy="66"
       sodipodi:rx="100"
       sodipodi:ry="100"
       d="M 265,66 A 100,100 0 1 1 65,66 100,100 0 1 1 265,66 z"
       transform="matrix(0.96,0,0,0.96,-62.4,1085.0022)"
       inkscape:export-filename="./player-area.png"
       inkscape:export-xdpi="90"
       inkscape:export-ydpi="90" />
    <g
       id="g3896"
       inkscape:export-filename="./player-areaWithSprite.png"
       inkscape:export-xdpi="90"
       inkscape:export-ydpi="90">
      <path
         sodipodi:type="arc"
         style="fill:#ffffff;fill-opacity:0.2;stroke:none"
         id="path3872"
         sodipodi:cx="165"
         sodipodi:cy="66"
         sodipodi:rx="100"
         sodipodi:ry="100"
         d="M 265,66 A 100,100 0 1 1 65,66 100,100 0 1 1 265,66 z"
         transform="matrix(0.96,0,0,0.96,129.6,1085.0022)" />
      <g
         transform="translate(264,168.00002)"
         id="g3874">
        <path
           inkscape:export-ydpi="90"
           inkscape:export-xdpi="90"
           inkscape:export-filename="./player-thief.png"
           transform="matrix(0.85714286,0,0,0.85714286,0,956.36218)"
           d="M 56,28 C 56,43.463973 43.463973,56 28,56 12.536027,56 0,43.463973 0,28 0,12.536027 12.536027,0 28,0 43.463973,0 56,12.536027 56,28 z"
           sodipodi:ry="28"
           sodipodi:rx="28"
           sodipodi:cy="28"
           sodipodi:cx="28"
           id="path3876"
           style="fill:#001d50;fill-opacity:1;stroke:none"
           sodipodi:type="arc" />
        <path
           inkscape:export-ydpi="90"
           inkscape:export-xdpi="90"
           inkscape:export-filename="./player-thief.png"
           sodipodi:type="arc"
           style="fill:#001dd3;fill-opacity:1;stroke:none"
           id="path3878"
           sodipodi:cx="28"
           sodipodi:cy="28"
           sodipodi:rx="28"
           sodipodi:ry="28"
           d="M 56,28 C 56,43.463973 43.463973,56 28,56 12.536027,56 0,43.463973 0,28 0,12.536027 12.536027,0 28,0 43.463973,0 56,12.536027 56,28 z"
           transform="matrix(0.78571428,0,0,0.78571428,2.0000002,958.36218)" />
        <path
           inkscape:connector-curvature="0"
           inkscape:export-ydpi="90"
           inkscape:export-xdpi="90"
           inkscape:export-filename="./player-thief.png"
           id="path3880"
           transform="translate(0,956.36218)"
           d="M 11.53125,5.875 C 9.3164832,7.4009611 7.4009611,9.3164832 5.875,11.53125 L 18.34375,24 5.875,36.46875 c 1.5259611,2.214767 3.4414832,4.130289 5.65625,5.65625 L 24,29.65625 36.46875,42.125 c 2.214767,-1.525961 4.130289,-3.441483 5.65625,-5.65625 L 29.65625,24 42.125,11.53125 C 40.599039,9.3164832 38.683517,7.4009611 36.46875,5.875 L 24,18.34375 11.53125,5.875 z"
           style="fill:#000000;fill-opacity:0.2;stroke:none" />
        <g
           inkscape:export-ydpi="90"
           inkscape:export-xdpi="90"
           inkscape:export-filename="./player-thief.png"
           style="fill:#ff6565;fill-opacity:1"
           id="g3882">
          <path
             style="fill:#ff6565;fill-opacity:1;stroke:none"
             d="m 7.0625,982.36218 c -0.0625,6 9.108276,12 16.9375,12 7.829224,0 17,-6 16.9375,-12 z"
             id="path3884"
             inkscape:connector-curvature="0"
             sodipodi:nodetypes="cscc" />
          <path
             sodipodi:type="arc"
             style="fill:#ff6565;fill-opacity:1;stroke:none"
             id="path3886"
             sodipodi:cx="16"
             sodipodi:cy="16"
             sodipodi:rx="2"
             sodipodi:ry="2"
             d="m 18,16 c 0,1.104569 -0.895431,2 -2,2 -1.104569,0 -2,-0.895431 -2,-2 0,-1.104569 0.895431,-2 2,-2 1.104569,0 2,0.895431 2,2 z"
             transform="translate(0,956.36218)" />
          <path
             transform="matrix(1.5,0,0,1.5,8,948.36218)"
             d="m 18,16 c 0,1.104569 -0.895431,2 -2,2 -1.104569,0 -2,-0.895431 -2,-2 0,-1.104569 0.895431,-2 2,-2 1.104569,0 2,0.895431 2,2 z"
             sodipodi:ry="2"
             sodipodi:rx="2"
             sodipodi:cy="16"
             sodipodi:cx="16"
             id="path3888"
             style="fill:#ff6565;fill-opacity:1;stroke:none"
             sodipodi:type="arc" />
          <rect
             style="fill:#ff6565;fill-opacity:1;stroke:none"
             id="rect3890"
             width="7"
             height="2"
             x="262.80954"
             y="929.12958"
             transform="matrix(0.96592583,0.25881905,-0.25881905,0.96592583,0,0)" />
          <rect
             y="941.55292"
             x="-223.4451"
             height="2"
             width="7"
             id="rect3892"
             style="fill:#ff6565;fill-opacity:1;stroke:none"
             transform="matrix(0.96592583,-0.25881905,0.25881905,0.96592583,0,0)" />
        </g>
        <path
           inkscape:export-ydpi="90"
           inkscape:export-xdpi="90"
           inkscape:export-filename="./player-thief.png"
           id="path3894"
           d="m 7.0625,982.36218 c -0.017644,1.69384 0.7213313,3.37865 1.9375,4.9375 l 0,-4.9375 -1.9375,0 z m 3.9375,0 0,7.03125 c 0.619712,0.5339 1.281398,1.03083 2,1.5 l 0,-8.53125 -2,0 z m 4,0 0,9.6875 c 0.648775,0.33052 1.315782,0.63832 2,0.90625 l 0,-10.59375 -2,0 z m 4,0 0,11.25 c 0.661123,0.18783 1.332832,0.35037 2,0.46875 l 0,-11.71875 -2,0 z m 4,0 0,11.96875 c 0.337039,0.0213 0.667001,0.0313 1,0.0313 0.332999,0 0.662961,-0.01 1,-0.0313 l 0,-11.96875 -2,0 z m 4,0 0,11.71875 c 0.667168,-0.11838 1.338877,-0.28092 2,-0.46875 l 0,-11.25 -2,0 z m 4,0 0,10.59375 c 0.684218,-0.26793 1.351225,-0.57573 2,-0.90625 l 0,-9.6875 -2,0 z m 4,0 0,8.53125 c 0.718602,-0.46917 1.380288,-0.9661 2,-1.5 l 0,-7.03125 -2,0 z m 4,0 0,4.9375 c 1.216169,-1.55885 1.955144,-3.24366 1.9375,-4.9375 l -1.9375,0 z"
           style="fill:#000000;fill-opacity:0.42439025;stroke:none"
           inkscape:connector-curvature="0" />
      </g>
    </g>
  </g>
</svg>
